<mxfile host="app.diagrams.net" modified="2024-01-14T14:04:53.131Z" agent="Mozilla/5.0 (Windows NT 10.0; Win64; x64) AppleWebKit/537.36 (KHTML, like Gecko) Chrome/120.0.0.0 Safari/537.36" etag="Nv6AwEXqTUbYRj0MV9YL" version="22.1.18" type="github">
  <diagram name="Страница — 1" id="5lUb4-LuFrnguoZUQbyz">
    <mxGraphModel dx="1195" dy="667" grid="1" gridSize="10" guides="1" tooltips="1" connect="1" arrows="1" fold="1" page="1" pageScale="1" pageWidth="827" pageHeight="1169" math="0" shadow="0">
      <root>
        <mxCell id="0" />
        <mxCell id="1" parent="0" />
        <mxCell id="oCDhYJYDVwM0s1DfUQqd-2" value="Ряд 1" style="swimlane;childLayout=stackLayout;resizeParent=1;resizeParentMax=0;startSize=20;html=1;" vertex="1" parent="1">
          <mxGeometry x="30" y="100" width="610" height="470" as="geometry" />
        </mxCell>
        <mxCell id="oCDhYJYDVwM0s1DfUQqd-3" value="&lt;p style=&quot;margin: 24px 0px; word-break: break-word;&quot; data-sourcepos=&quot;21:1-21:12&quot;&gt;Стеллаж 1&lt;/p&gt;&lt;ul style=&quot;margin: 4px 0px; padding-inline-start: 36px;&quot; data-sourcepos=&quot;23:1-26:0&quot;&gt;&lt;span style=&quot;color: rgb(227, 227, 227); font-family: &amp;quot;Google Sans&amp;quot;, &amp;quot;Helvetica Neue&amp;quot;, sans-serif; font-size: 16px; font-weight: 400; text-align: start; background-color: rgb(19, 19, 20);&quot;&gt;&lt;/span&gt;&lt;/ul&gt;" style="swimlane;startSize=20;html=1;" vertex="1" parent="oCDhYJYDVwM0s1DfUQqd-2">
          <mxGeometry y="20" width="130" height="450" as="geometry" />
        </mxCell>
        <mxCell id="oCDhYJYDVwM0s1DfUQqd-76" value="" style="shape=cube;whiteSpace=wrap;html=1;boundedLbl=1;backgroundOutline=1;darkOpacity=0.05;darkOpacity2=0.1;direction=east;" vertex="1" parent="oCDhYJYDVwM0s1DfUQqd-3">
          <mxGeometry x="60" y="110" width="60" height="60" as="geometry" />
        </mxCell>
        <mxCell id="oCDhYJYDVwM0s1DfUQqd-77" value="" style="shape=cube;whiteSpace=wrap;html=1;boundedLbl=1;backgroundOutline=1;darkOpacity=0.05;darkOpacity2=0.1;direction=east;" vertex="1" parent="oCDhYJYDVwM0s1DfUQqd-3">
          <mxGeometry y="110" width="60" height="60" as="geometry" />
        </mxCell>
        <mxCell id="oCDhYJYDVwM0s1DfUQqd-78" value="" style="shape=cube;whiteSpace=wrap;html=1;boundedLbl=1;backgroundOutline=1;darkOpacity=0.05;darkOpacity2=0.1;direction=east;" vertex="1" parent="oCDhYJYDVwM0s1DfUQqd-3">
          <mxGeometry x="60" y="70" width="60" height="60" as="geometry" />
        </mxCell>
        <mxCell id="oCDhYJYDVwM0s1DfUQqd-79" value="" style="shape=cube;whiteSpace=wrap;html=1;boundedLbl=1;backgroundOutline=1;darkOpacity=0.05;darkOpacity2=0.1;direction=east;" vertex="1" parent="oCDhYJYDVwM0s1DfUQqd-3">
          <mxGeometry y="70" width="60" height="60" as="geometry" />
        </mxCell>
        <mxCell id="oCDhYJYDVwM0s1DfUQqd-80" value="" style="shape=cube;whiteSpace=wrap;html=1;boundedLbl=1;backgroundOutline=1;darkOpacity=0.05;darkOpacity2=0.1;direction=east;" vertex="1" parent="oCDhYJYDVwM0s1DfUQqd-3">
          <mxGeometry x="60" y="260" width="60" height="60" as="geometry" />
        </mxCell>
        <mxCell id="oCDhYJYDVwM0s1DfUQqd-81" value="" style="shape=cube;whiteSpace=wrap;html=1;boundedLbl=1;backgroundOutline=1;darkOpacity=0.05;darkOpacity2=0.1;direction=east;" vertex="1" parent="oCDhYJYDVwM0s1DfUQqd-3">
          <mxGeometry y="260" width="60" height="60" as="geometry" />
        </mxCell>
        <mxCell id="oCDhYJYDVwM0s1DfUQqd-82" value="" style="shape=cube;whiteSpace=wrap;html=1;boundedLbl=1;backgroundOutline=1;darkOpacity=0.05;darkOpacity2=0.1;direction=east;" vertex="1" parent="oCDhYJYDVwM0s1DfUQqd-3">
          <mxGeometry x="60" y="220" width="60" height="60" as="geometry" />
        </mxCell>
        <mxCell id="oCDhYJYDVwM0s1DfUQqd-83" value="" style="shape=cube;whiteSpace=wrap;html=1;boundedLbl=1;backgroundOutline=1;darkOpacity=0.05;darkOpacity2=0.1;direction=east;" vertex="1" parent="oCDhYJYDVwM0s1DfUQqd-3">
          <mxGeometry y="220" width="60" height="60" as="geometry" />
        </mxCell>
        <mxCell id="oCDhYJYDVwM0s1DfUQqd-84" value="" style="shape=cube;whiteSpace=wrap;html=1;boundedLbl=1;backgroundOutline=1;darkOpacity=0.05;darkOpacity2=0.1;direction=east;" vertex="1" parent="oCDhYJYDVwM0s1DfUQqd-3">
          <mxGeometry x="60" y="390" width="60" height="60" as="geometry" />
        </mxCell>
        <mxCell id="oCDhYJYDVwM0s1DfUQqd-85" value="" style="shape=cube;whiteSpace=wrap;html=1;boundedLbl=1;backgroundOutline=1;darkOpacity=0.05;darkOpacity2=0.1;direction=east;" vertex="1" parent="oCDhYJYDVwM0s1DfUQqd-3">
          <mxGeometry y="390" width="60" height="60" as="geometry" />
        </mxCell>
        <mxCell id="oCDhYJYDVwM0s1DfUQqd-86" value="" style="shape=cube;whiteSpace=wrap;html=1;boundedLbl=1;backgroundOutline=1;darkOpacity=0.05;darkOpacity2=0.1;direction=east;" vertex="1" parent="oCDhYJYDVwM0s1DfUQqd-3">
          <mxGeometry x="60" y="350" width="60" height="60" as="geometry" />
        </mxCell>
        <mxCell id="oCDhYJYDVwM0s1DfUQqd-87" value="" style="shape=cube;whiteSpace=wrap;html=1;boundedLbl=1;backgroundOutline=1;darkOpacity=0.05;darkOpacity2=0.1;direction=east;" vertex="1" parent="oCDhYJYDVwM0s1DfUQqd-3">
          <mxGeometry y="350" width="60" height="60" as="geometry" />
        </mxCell>
        <mxCell id="oCDhYJYDVwM0s1DfUQqd-4" value="Стеллаж 2" style="swimlane;startSize=20;html=1;" vertex="1" parent="oCDhYJYDVwM0s1DfUQqd-2">
          <mxGeometry x="130" y="20" width="120" height="450" as="geometry" />
        </mxCell>
        <mxCell id="oCDhYJYDVwM0s1DfUQqd-64" value="" style="shape=cube;whiteSpace=wrap;html=1;boundedLbl=1;backgroundOutline=1;darkOpacity=0.05;darkOpacity2=0.1;direction=east;" vertex="1" parent="oCDhYJYDVwM0s1DfUQqd-4">
          <mxGeometry x="60" y="110" width="60" height="60" as="geometry" />
        </mxCell>
        <mxCell id="oCDhYJYDVwM0s1DfUQqd-65" value="" style="shape=cube;whiteSpace=wrap;html=1;boundedLbl=1;backgroundOutline=1;darkOpacity=0.05;darkOpacity2=0.1;direction=east;" vertex="1" parent="oCDhYJYDVwM0s1DfUQqd-4">
          <mxGeometry y="110" width="60" height="60" as="geometry" />
        </mxCell>
        <mxCell id="oCDhYJYDVwM0s1DfUQqd-66" value="" style="shape=cube;whiteSpace=wrap;html=1;boundedLbl=1;backgroundOutline=1;darkOpacity=0.05;darkOpacity2=0.1;direction=east;" vertex="1" parent="oCDhYJYDVwM0s1DfUQqd-4">
          <mxGeometry x="60" y="70" width="60" height="60" as="geometry" />
        </mxCell>
        <mxCell id="oCDhYJYDVwM0s1DfUQqd-67" value="" style="shape=cube;whiteSpace=wrap;html=1;boundedLbl=1;backgroundOutline=1;darkOpacity=0.05;darkOpacity2=0.1;direction=east;" vertex="1" parent="oCDhYJYDVwM0s1DfUQqd-4">
          <mxGeometry y="70" width="60" height="60" as="geometry" />
        </mxCell>
        <mxCell id="oCDhYJYDVwM0s1DfUQqd-68" value="" style="shape=cube;whiteSpace=wrap;html=1;boundedLbl=1;backgroundOutline=1;darkOpacity=0.05;darkOpacity2=0.1;direction=east;" vertex="1" parent="oCDhYJYDVwM0s1DfUQqd-4">
          <mxGeometry x="60" y="260" width="60" height="60" as="geometry" />
        </mxCell>
        <mxCell id="oCDhYJYDVwM0s1DfUQqd-69" value="" style="shape=cube;whiteSpace=wrap;html=1;boundedLbl=1;backgroundOutline=1;darkOpacity=0.05;darkOpacity2=0.1;direction=east;" vertex="1" parent="oCDhYJYDVwM0s1DfUQqd-4">
          <mxGeometry y="260" width="60" height="60" as="geometry" />
        </mxCell>
        <mxCell id="oCDhYJYDVwM0s1DfUQqd-70" value="" style="shape=cube;whiteSpace=wrap;html=1;boundedLbl=1;backgroundOutline=1;darkOpacity=0.05;darkOpacity2=0.1;direction=east;" vertex="1" parent="oCDhYJYDVwM0s1DfUQqd-4">
          <mxGeometry x="60" y="220" width="60" height="60" as="geometry" />
        </mxCell>
        <mxCell id="oCDhYJYDVwM0s1DfUQqd-71" value="" style="shape=cube;whiteSpace=wrap;html=1;boundedLbl=1;backgroundOutline=1;darkOpacity=0.05;darkOpacity2=0.1;direction=east;" vertex="1" parent="oCDhYJYDVwM0s1DfUQqd-4">
          <mxGeometry y="220" width="60" height="60" as="geometry" />
        </mxCell>
        <mxCell id="oCDhYJYDVwM0s1DfUQqd-72" value="" style="shape=cube;whiteSpace=wrap;html=1;boundedLbl=1;backgroundOutline=1;darkOpacity=0.05;darkOpacity2=0.1;direction=east;" vertex="1" parent="oCDhYJYDVwM0s1DfUQqd-4">
          <mxGeometry x="60" y="390" width="60" height="60" as="geometry" />
        </mxCell>
        <mxCell id="oCDhYJYDVwM0s1DfUQqd-73" value="" style="shape=cube;whiteSpace=wrap;html=1;boundedLbl=1;backgroundOutline=1;darkOpacity=0.05;darkOpacity2=0.1;direction=east;" vertex="1" parent="oCDhYJYDVwM0s1DfUQqd-4">
          <mxGeometry y="390" width="60" height="60" as="geometry" />
        </mxCell>
        <mxCell id="oCDhYJYDVwM0s1DfUQqd-74" value="" style="shape=cube;whiteSpace=wrap;html=1;boundedLbl=1;backgroundOutline=1;darkOpacity=0.05;darkOpacity2=0.1;direction=east;" vertex="1" parent="oCDhYJYDVwM0s1DfUQqd-4">
          <mxGeometry x="60" y="350" width="60" height="60" as="geometry" />
        </mxCell>
        <mxCell id="oCDhYJYDVwM0s1DfUQqd-75" value="" style="shape=cube;whiteSpace=wrap;html=1;boundedLbl=1;backgroundOutline=1;darkOpacity=0.05;darkOpacity2=0.1;direction=east;" vertex="1" parent="oCDhYJYDVwM0s1DfUQqd-4">
          <mxGeometry y="350" width="60" height="60" as="geometry" />
        </mxCell>
        <mxCell id="oCDhYJYDVwM0s1DfUQqd-5" value="Стеллаж&amp;nbsp;3" style="swimlane;startSize=20;html=1;" vertex="1" parent="oCDhYJYDVwM0s1DfUQqd-2">
          <mxGeometry x="250" y="20" width="120" height="450" as="geometry" />
        </mxCell>
        <mxCell id="oCDhYJYDVwM0s1DfUQqd-10" value="" style="endArrow=none;html=1;rounded=0;" edge="1" parent="oCDhYJYDVwM0s1DfUQqd-5">
          <mxGeometry width="50" height="50" relative="1" as="geometry">
            <mxPoint x="-250" y="170" as="sourcePoint" />
            <mxPoint x="360" y="170" as="targetPoint" />
          </mxGeometry>
        </mxCell>
        <mxCell id="oCDhYJYDVwM0s1DfUQqd-52" value="" style="shape=cube;whiteSpace=wrap;html=1;boundedLbl=1;backgroundOutline=1;darkOpacity=0.05;darkOpacity2=0.1;direction=east;" vertex="1" parent="oCDhYJYDVwM0s1DfUQqd-5">
          <mxGeometry x="60" y="110" width="60" height="60" as="geometry" />
        </mxCell>
        <mxCell id="oCDhYJYDVwM0s1DfUQqd-53" value="" style="shape=cube;whiteSpace=wrap;html=1;boundedLbl=1;backgroundOutline=1;darkOpacity=0.05;darkOpacity2=0.1;direction=east;" vertex="1" parent="oCDhYJYDVwM0s1DfUQqd-5">
          <mxGeometry y="110" width="60" height="60" as="geometry" />
        </mxCell>
        <mxCell id="oCDhYJYDVwM0s1DfUQqd-54" value="" style="shape=cube;whiteSpace=wrap;html=1;boundedLbl=1;backgroundOutline=1;darkOpacity=0.05;darkOpacity2=0.1;direction=east;" vertex="1" parent="oCDhYJYDVwM0s1DfUQqd-5">
          <mxGeometry x="60" y="70" width="60" height="60" as="geometry" />
        </mxCell>
        <mxCell id="oCDhYJYDVwM0s1DfUQqd-55" value="" style="shape=cube;whiteSpace=wrap;html=1;boundedLbl=1;backgroundOutline=1;darkOpacity=0.05;darkOpacity2=0.1;direction=east;" vertex="1" parent="oCDhYJYDVwM0s1DfUQqd-5">
          <mxGeometry y="70" width="60" height="60" as="geometry" />
        </mxCell>
        <mxCell id="oCDhYJYDVwM0s1DfUQqd-56" value="" style="shape=cube;whiteSpace=wrap;html=1;boundedLbl=1;backgroundOutline=1;darkOpacity=0.05;darkOpacity2=0.1;direction=east;" vertex="1" parent="oCDhYJYDVwM0s1DfUQqd-5">
          <mxGeometry x="60" y="260" width="60" height="60" as="geometry" />
        </mxCell>
        <mxCell id="oCDhYJYDVwM0s1DfUQqd-57" value="" style="shape=cube;whiteSpace=wrap;html=1;boundedLbl=1;backgroundOutline=1;darkOpacity=0.05;darkOpacity2=0.1;direction=east;" vertex="1" parent="oCDhYJYDVwM0s1DfUQqd-5">
          <mxGeometry y="260" width="60" height="60" as="geometry" />
        </mxCell>
        <mxCell id="oCDhYJYDVwM0s1DfUQqd-58" value="" style="shape=cube;whiteSpace=wrap;html=1;boundedLbl=1;backgroundOutline=1;darkOpacity=0.05;darkOpacity2=0.1;direction=east;" vertex="1" parent="oCDhYJYDVwM0s1DfUQqd-5">
          <mxGeometry x="60" y="220" width="60" height="60" as="geometry" />
        </mxCell>
        <mxCell id="oCDhYJYDVwM0s1DfUQqd-59" value="" style="shape=cube;whiteSpace=wrap;html=1;boundedLbl=1;backgroundOutline=1;darkOpacity=0.05;darkOpacity2=0.1;direction=east;" vertex="1" parent="oCDhYJYDVwM0s1DfUQqd-5">
          <mxGeometry y="220" width="60" height="60" as="geometry" />
        </mxCell>
        <mxCell id="oCDhYJYDVwM0s1DfUQqd-60" value="" style="shape=cube;whiteSpace=wrap;html=1;boundedLbl=1;backgroundOutline=1;darkOpacity=0.05;darkOpacity2=0.1;direction=east;" vertex="1" parent="oCDhYJYDVwM0s1DfUQqd-5">
          <mxGeometry x="60" y="390" width="60" height="60" as="geometry" />
        </mxCell>
        <mxCell id="oCDhYJYDVwM0s1DfUQqd-61" value="" style="shape=cube;whiteSpace=wrap;html=1;boundedLbl=1;backgroundOutline=1;darkOpacity=0.05;darkOpacity2=0.1;direction=east;" vertex="1" parent="oCDhYJYDVwM0s1DfUQqd-5">
          <mxGeometry y="390" width="60" height="60" as="geometry" />
        </mxCell>
        <mxCell id="oCDhYJYDVwM0s1DfUQqd-62" value="" style="shape=cube;whiteSpace=wrap;html=1;boundedLbl=1;backgroundOutline=1;darkOpacity=0.05;darkOpacity2=0.1;direction=east;" vertex="1" parent="oCDhYJYDVwM0s1DfUQqd-5">
          <mxGeometry x="60" y="350" width="60" height="60" as="geometry" />
        </mxCell>
        <mxCell id="oCDhYJYDVwM0s1DfUQqd-63" value="" style="shape=cube;whiteSpace=wrap;html=1;boundedLbl=1;backgroundOutline=1;darkOpacity=0.05;darkOpacity2=0.1;direction=east;" vertex="1" parent="oCDhYJYDVwM0s1DfUQqd-5">
          <mxGeometry y="350" width="60" height="60" as="geometry" />
        </mxCell>
        <mxCell id="oCDhYJYDVwM0s1DfUQqd-7" value="Стеллаж 4" style="swimlane;startSize=20;html=1;" vertex="1" parent="oCDhYJYDVwM0s1DfUQqd-2">
          <mxGeometry x="370" y="20" width="120" height="450" as="geometry" />
        </mxCell>
        <mxCell id="oCDhYJYDVwM0s1DfUQqd-40" value="" style="shape=cube;whiteSpace=wrap;html=1;boundedLbl=1;backgroundOutline=1;darkOpacity=0.05;darkOpacity2=0.1;direction=east;" vertex="1" parent="oCDhYJYDVwM0s1DfUQqd-7">
          <mxGeometry x="60" y="110" width="60" height="60" as="geometry" />
        </mxCell>
        <mxCell id="oCDhYJYDVwM0s1DfUQqd-41" value="" style="shape=cube;whiteSpace=wrap;html=1;boundedLbl=1;backgroundOutline=1;darkOpacity=0.05;darkOpacity2=0.1;direction=east;" vertex="1" parent="oCDhYJYDVwM0s1DfUQqd-7">
          <mxGeometry y="110" width="60" height="60" as="geometry" />
        </mxCell>
        <mxCell id="oCDhYJYDVwM0s1DfUQqd-42" value="" style="shape=cube;whiteSpace=wrap;html=1;boundedLbl=1;backgroundOutline=1;darkOpacity=0.05;darkOpacity2=0.1;direction=east;" vertex="1" parent="oCDhYJYDVwM0s1DfUQqd-7">
          <mxGeometry x="60" y="70" width="60" height="60" as="geometry" />
        </mxCell>
        <mxCell id="oCDhYJYDVwM0s1DfUQqd-43" value="" style="shape=cube;whiteSpace=wrap;html=1;boundedLbl=1;backgroundOutline=1;darkOpacity=0.05;darkOpacity2=0.1;direction=east;" vertex="1" parent="oCDhYJYDVwM0s1DfUQqd-7">
          <mxGeometry y="70" width="60" height="60" as="geometry" />
        </mxCell>
        <mxCell id="oCDhYJYDVwM0s1DfUQqd-44" value="" style="shape=cube;whiteSpace=wrap;html=1;boundedLbl=1;backgroundOutline=1;darkOpacity=0.05;darkOpacity2=0.1;direction=east;" vertex="1" parent="oCDhYJYDVwM0s1DfUQqd-7">
          <mxGeometry x="60" y="260" width="60" height="60" as="geometry" />
        </mxCell>
        <mxCell id="oCDhYJYDVwM0s1DfUQqd-45" value="" style="shape=cube;whiteSpace=wrap;html=1;boundedLbl=1;backgroundOutline=1;darkOpacity=0.05;darkOpacity2=0.1;direction=east;" vertex="1" parent="oCDhYJYDVwM0s1DfUQqd-7">
          <mxGeometry y="260" width="60" height="60" as="geometry" />
        </mxCell>
        <mxCell id="oCDhYJYDVwM0s1DfUQqd-46" value="" style="shape=cube;whiteSpace=wrap;html=1;boundedLbl=1;backgroundOutline=1;darkOpacity=0.05;darkOpacity2=0.1;direction=east;" vertex="1" parent="oCDhYJYDVwM0s1DfUQqd-7">
          <mxGeometry x="60" y="220" width="60" height="60" as="geometry" />
        </mxCell>
        <mxCell id="oCDhYJYDVwM0s1DfUQqd-47" value="" style="shape=cube;whiteSpace=wrap;html=1;boundedLbl=1;backgroundOutline=1;darkOpacity=0.05;darkOpacity2=0.1;direction=east;" vertex="1" parent="oCDhYJYDVwM0s1DfUQqd-7">
          <mxGeometry y="220" width="60" height="60" as="geometry" />
        </mxCell>
        <mxCell id="oCDhYJYDVwM0s1DfUQqd-48" value="" style="shape=cube;whiteSpace=wrap;html=1;boundedLbl=1;backgroundOutline=1;darkOpacity=0.05;darkOpacity2=0.1;direction=east;" vertex="1" parent="oCDhYJYDVwM0s1DfUQqd-7">
          <mxGeometry x="60" y="390" width="60" height="60" as="geometry" />
        </mxCell>
        <mxCell id="oCDhYJYDVwM0s1DfUQqd-49" value="" style="shape=cube;whiteSpace=wrap;html=1;boundedLbl=1;backgroundOutline=1;darkOpacity=0.05;darkOpacity2=0.1;direction=east;" vertex="1" parent="oCDhYJYDVwM0s1DfUQqd-7">
          <mxGeometry y="390" width="60" height="60" as="geometry" />
        </mxCell>
        <mxCell id="oCDhYJYDVwM0s1DfUQqd-50" value="" style="shape=cube;whiteSpace=wrap;html=1;boundedLbl=1;backgroundOutline=1;darkOpacity=0.05;darkOpacity2=0.1;direction=east;" vertex="1" parent="oCDhYJYDVwM0s1DfUQqd-7">
          <mxGeometry x="60" y="350" width="60" height="60" as="geometry" />
        </mxCell>
        <mxCell id="oCDhYJYDVwM0s1DfUQqd-51" value="" style="shape=cube;whiteSpace=wrap;html=1;boundedLbl=1;backgroundOutline=1;darkOpacity=0.05;darkOpacity2=0.1;direction=east;" vertex="1" parent="oCDhYJYDVwM0s1DfUQqd-7">
          <mxGeometry y="350" width="60" height="60" as="geometry" />
        </mxCell>
        <mxCell id="oCDhYJYDVwM0s1DfUQqd-8" value="Стеллаж&amp;nbsp; 5" style="swimlane;startSize=20;html=1;" vertex="1" parent="oCDhYJYDVwM0s1DfUQqd-2">
          <mxGeometry x="490" y="20" width="120" height="450" as="geometry" />
        </mxCell>
        <mxCell id="oCDhYJYDVwM0s1DfUQqd-11" value="" style="shape=cube;whiteSpace=wrap;html=1;boundedLbl=1;backgroundOutline=1;darkOpacity=0.05;darkOpacity2=0.1;direction=east;" vertex="1" parent="oCDhYJYDVwM0s1DfUQqd-8">
          <mxGeometry x="60" y="110" width="60" height="60" as="geometry" />
        </mxCell>
        <mxCell id="oCDhYJYDVwM0s1DfUQqd-12" value="" style="shape=cube;whiteSpace=wrap;html=1;boundedLbl=1;backgroundOutline=1;darkOpacity=0.05;darkOpacity2=0.1;direction=east;" vertex="1" parent="oCDhYJYDVwM0s1DfUQqd-8">
          <mxGeometry y="110" width="60" height="60" as="geometry" />
        </mxCell>
        <mxCell id="oCDhYJYDVwM0s1DfUQqd-13" value="" style="shape=cube;whiteSpace=wrap;html=1;boundedLbl=1;backgroundOutline=1;darkOpacity=0.05;darkOpacity2=0.1;direction=east;" vertex="1" parent="oCDhYJYDVwM0s1DfUQqd-8">
          <mxGeometry x="60" y="70" width="60" height="60" as="geometry" />
        </mxCell>
        <mxCell id="oCDhYJYDVwM0s1DfUQqd-14" value="" style="shape=cube;whiteSpace=wrap;html=1;boundedLbl=1;backgroundOutline=1;darkOpacity=0.05;darkOpacity2=0.1;direction=east;" vertex="1" parent="oCDhYJYDVwM0s1DfUQqd-8">
          <mxGeometry y="70" width="60" height="60" as="geometry" />
        </mxCell>
        <mxCell id="oCDhYJYDVwM0s1DfUQqd-9" value="" style="endArrow=none;html=1;rounded=0;" edge="1" parent="oCDhYJYDVwM0s1DfUQqd-8">
          <mxGeometry width="50" height="50" relative="1" as="geometry">
            <mxPoint x="-490" y="320" as="sourcePoint" />
            <mxPoint x="120" y="320" as="targetPoint" />
          </mxGeometry>
        </mxCell>
        <mxCell id="oCDhYJYDVwM0s1DfUQqd-32" value="" style="shape=cube;whiteSpace=wrap;html=1;boundedLbl=1;backgroundOutline=1;darkOpacity=0.05;darkOpacity2=0.1;direction=east;" vertex="1" parent="oCDhYJYDVwM0s1DfUQqd-8">
          <mxGeometry x="60" y="260" width="60" height="60" as="geometry" />
        </mxCell>
        <mxCell id="oCDhYJYDVwM0s1DfUQqd-33" value="" style="shape=cube;whiteSpace=wrap;html=1;boundedLbl=1;backgroundOutline=1;darkOpacity=0.05;darkOpacity2=0.1;direction=east;" vertex="1" parent="oCDhYJYDVwM0s1DfUQqd-8">
          <mxGeometry y="260" width="60" height="60" as="geometry" />
        </mxCell>
        <mxCell id="oCDhYJYDVwM0s1DfUQqd-34" value="" style="shape=cube;whiteSpace=wrap;html=1;boundedLbl=1;backgroundOutline=1;darkOpacity=0.05;darkOpacity2=0.1;direction=east;" vertex="1" parent="oCDhYJYDVwM0s1DfUQqd-8">
          <mxGeometry x="60" y="220" width="60" height="60" as="geometry" />
        </mxCell>
        <mxCell id="oCDhYJYDVwM0s1DfUQqd-35" value="" style="shape=cube;whiteSpace=wrap;html=1;boundedLbl=1;backgroundOutline=1;darkOpacity=0.05;darkOpacity2=0.1;direction=east;" vertex="1" parent="oCDhYJYDVwM0s1DfUQqd-8">
          <mxGeometry y="220" width="60" height="60" as="geometry" />
        </mxCell>
        <mxCell id="oCDhYJYDVwM0s1DfUQqd-36" value="" style="shape=cube;whiteSpace=wrap;html=1;boundedLbl=1;backgroundOutline=1;darkOpacity=0.05;darkOpacity2=0.1;direction=east;" vertex="1" parent="oCDhYJYDVwM0s1DfUQqd-8">
          <mxGeometry x="60" y="390" width="60" height="60" as="geometry" />
        </mxCell>
        <mxCell id="oCDhYJYDVwM0s1DfUQqd-37" value="" style="shape=cube;whiteSpace=wrap;html=1;boundedLbl=1;backgroundOutline=1;darkOpacity=0.05;darkOpacity2=0.1;direction=east;" vertex="1" parent="oCDhYJYDVwM0s1DfUQqd-8">
          <mxGeometry y="390" width="60" height="60" as="geometry" />
        </mxCell>
        <mxCell id="oCDhYJYDVwM0s1DfUQqd-38" value="" style="shape=cube;whiteSpace=wrap;html=1;boundedLbl=1;backgroundOutline=1;darkOpacity=0.05;darkOpacity2=0.1;direction=east;" vertex="1" parent="oCDhYJYDVwM0s1DfUQqd-8">
          <mxGeometry x="60" y="350" width="60" height="60" as="geometry" />
        </mxCell>
        <mxCell id="oCDhYJYDVwM0s1DfUQqd-39" value="" style="shape=cube;whiteSpace=wrap;html=1;boundedLbl=1;backgroundOutline=1;darkOpacity=0.05;darkOpacity2=0.1;direction=east;" vertex="1" parent="oCDhYJYDVwM0s1DfUQqd-8">
          <mxGeometry y="350" width="60" height="60" as="geometry" />
        </mxCell>
      </root>
    </mxGraphModel>
  </diagram>
</mxfile>
